# ProBuilder 4.2.3
# https://unity3d.com/unity/features/worldbuilding/probuilder
# 1/1/2021 7:26:50 PM

mtllib ./Hall_Long.mtl
o Hall Long

g Hall Long
v 0 0.75 -0.75
v -22 0.75 -0.75
v 0 1 -0.75
v -22 1 -0.75
v -22 0.75 -1
v -22 1 -1
v -22 0.75 -4.25
v 0 0.75 -4.25
v -22 1 -4.25
v 0 1 -4.25
v 0 0.75 -1
v 0 1 -1
v -22 0.75 -4
v 0 0.75 -4
v -22 1 -4
v 0 1 -4
v 0 4.25 -4
v -22 4.25 -4
v 0 4.25 -4.25
v -22 4.25 -4.25
v 0 4 -4
v -22 4 -4
v 0 4 -4.25
v -22 4 -4.25
v 0 4 -0.75
v -22 4 -0.75
v 0 4.25 -0.75
v -22 4.25 -0.75
v 0 4 -1
v -22 4 -1
v 0 4.25 -1
v -22 4.25 -1

vt 0 0.75
vt -22 0.75
vt 0 1
vt -22 1
vt -0.75 0.75
vt -1 0.75
vt -0.75 1
vt -1 1
vt 22 0.75
vt 22 1
vt 1 0.75
vt 0.75 0.75
vt 1 1
vt 0.75 1
vt 0 -1
vt -22 -1
vt 0 -0.75
vt -22 -0.75
vt -22 -4
vt 0 -4
vt -4 1
vt -4 0.75
vt 4 0.75
vt 4 1
vt 22 -1
vt 22 -4
vt -22 -4.25
vt 0 -4.25
vt -4.25 1
vt -4.25 0.75
vt 4.25 0.75
vt 4.25 1
vt 22 -4.25
vt 0 4
vt -22 4
vt 4.25 4
vt 4 4
vt -4 4
vt -4.25 4
vt 22 4
vt 0 4.25
vt -22 4.25
vt 4.25 4.25
vt 4 4.25
vt -4 4.25
vt -4.25 4.25
vt 22 4.25
vt 1 4.25
vt 1 4
vt -1 4
vt -1 4.25
vt 0.75 4.25
vt 0.75 4
vt -0.75 4
vt -0.75 4.25
vt 22 -0.75

vn 0 0 1
vn -1 0 0
vn 0 0 -1
vn 1 0 0
vn 0 -1 0
vn 0 1 0

usemtl ProBuilderDefault
f 3/3/1 4/4/1 2/2/1 1/1/1
f 4/7/2 6/8/2 5/6/2 2/5/2
f 9/10/3 10/3/3 8/1/3 7/9/3
f 12/13/4 3/14/4 1/12/4 11/11/4
f 1/17/5 2/18/5 5/16/5 11/15/5
f 13/19/5 14/20/5 11/15/5 5/16/5
f 15/21/2 13/22/2 5/6/2 6/8/2
f 14/23/4 16/24/4 12/13/4 11/11/4
f 16/20/6 15/26/6 6/25/6 12/15/6
f 7/27/5 8/28/5 14/20/5 13/19/5
f 9/29/2 7/30/2 13/22/2 15/21/2
f 8/31/4 10/32/4 16/24/4 14/23/4
f 19/28/6 20/33/6 18/26/6 17/20/6
f 21/34/1 22/35/1 15/4/1 16/3/1
f 23/36/4 21/37/4 16/24/4 10/32/4
f 22/38/2 24/39/2 9/29/2 15/21/2
f 24/40/3 23/34/3 10/3/3 9/10/3
f 27/41/1 28/42/1 26/35/1 25/34/1
f 19/43/4 17/44/4 21/37/4 23/36/4
f 18/45/2 20/46/2 24/39/2 22/38/2
f 20/47/3 19/41/3 23/34/3 24/40/3
f 29/15/5 30/16/5 22/19/5 21/20/5
f 31/48/4 29/49/4 21/37/4 17/44/4
f 30/50/2 32/51/2 18/45/2 22/38/2
f 32/25/6 31/15/6 17/20/6 18/26/6
f 25/17/5 26/18/5 30/16/5 29/15/5
f 27/52/4 25/53/4 29/49/4 31/48/4
f 26/54/2 28/55/2 32/51/2 30/50/2
f 28/56/6 27/17/6 31/15/6 32/25/6
f 25/34/1 26/35/1 4/4/1 3/3/1
f 29/49/4 25/53/4 3/14/4 12/13/4
f 26/54/2 30/50/2 6/8/2 4/7/2
f 30/40/3 29/34/3 12/3/3 6/10/3

